<svg width="384" height="512" viewBox="0 0 384 512" fill="none" xmlns="http://www.w3.org/2000/svg">
<g filter="url(#filter0_d_0_4)">
<path d="M4.43732 32.005V480.005C4.43732 497.603 18.8346 512 36.4323 512H347.558C365.16 512 379.563 497.598 379.563 479.995V117.855C379.562 108.03 375.66 98.607 368.712 91.659L287.904 10.8504C280.956 3.9031 271.533 0.00014682 261.707 0L36.4423 0C18.8396 0 4.43732 14.4023 4.43732 32.005Z" fill="url(#paint0_linear_0_4)"/>
<path d="M89.7114 247.006H294.289C296.737 247.006 299.085 246.033 300.817 244.302C302.548 242.571 303.521 240.222 303.521 237.774V215.261C303.521 212.812 302.548 210.464 300.817 208.733C299.085 207.001 296.737 206.029 294.289 206.029H89.7114C87.2629 206.029 84.9147 207.001 83.1834 208.733C81.452 210.464 80.4794 212.812 80.4794 215.261V237.774C80.4794 240.222 81.452 242.571 83.1834 244.302C84.9147 246.033 87.2629 247.006 89.7114 247.006ZM89.7114 310.971H294.289C296.737 310.971 299.085 309.998 300.817 308.267C302.548 306.535 303.521 304.187 303.521 301.739V279.226C303.521 276.777 302.548 274.429 300.817 272.698C299.085 270.966 296.737 269.994 294.289 269.994H89.7114C87.2629 269.994 84.9147 270.966 83.1834 272.698C81.452 274.429 80.4794 276.777 80.4794 279.226V301.739C80.4794 304.187 81.452 306.535 83.1834 308.267C84.9147 309.998 87.2629 310.971 89.7114 310.971ZM89.7114 374.935H294.289C296.737 374.935 299.085 373.962 300.817 372.231C302.548 370.499 303.521 368.151 303.521 365.703V343.191C303.521 340.742 302.548 338.394 300.817 336.663C299.085 334.931 296.737 333.959 294.289 333.959H89.7114C87.2629 333.959 84.9147 334.931 83.1834 336.663C81.452 338.394 80.4794 340.742 80.4794 343.191V365.704C80.4796 368.152 81.4524 370.5 83.1837 372.231C84.915 373.962 87.2631 374.935 89.7114 374.935ZM87.1635 438.899H190.723C192.496 438.899 194.196 438.195 195.449 436.942C196.703 435.688 197.407 433.988 197.407 432.215V404.608C197.407 402.835 196.703 401.135 195.449 399.881C194.196 398.628 192.496 397.923 190.723 397.923H87.1635C85.3907 397.923 83.6906 398.628 82.4371 399.881C81.1836 401.135 80.4794 402.835 80.4794 404.608V432.215C80.4794 433.988 81.1836 435.688 82.4371 436.942C83.6906 438.195 85.3907 438.899 87.1635 438.899Z" fill="#EBEFF0"/>
<path d="M287.903 10.8504C283.183 6.13186 277.277 2.77568 270.808 1.13644V105.466L379.563 214.221V117.854C379.563 108.029 375.66 98.606 368.712 91.6581L287.903 10.8504Z" fill="url(#paint1_linear_0_4)"/>
<path d="M378.465 108.868C378.584 109.382 378.693 109.883 378.793 110.366H280.762C273.821 110.366 268.193 104.739 268.193 97.797V0.583282C268.996 0.726703 269.797 0.886695 270.594 1.06316C277.902 2.67947 284.565 6.43715 289.857 11.7288L367.817 89.6883C373.093 94.9577 376.783 101.604 378.465 108.868Z" fill="url(#paint2_linear_0_4)"/>
<path d="M379.563 448.955V479.995C379.563 497.598 365.16 512 347.558 512H36.4323C18.8346 512 4.43732 497.602 4.43732 480.005V448.955H379.563Z" fill="url(#paint3_linear_0_4)"/>
</g>
<defs>
<filter id="filter0_d_0_4" x="0.437317" y="0" width="383.125" height="520" filterUnits="userSpaceOnUse" color-interpolation-filters="sRGB">
<feFlood flood-opacity="0" result="BackgroundImageFix"/>
<feColorMatrix in="SourceAlpha" type="matrix" values="0 0 0 0 0 0 0 0 0 0 0 0 0 0 0 0 0 0 127 0" result="hardAlpha"/>
<feOffset dy="4"/>
<feGaussianBlur stdDeviation="2"/>
<feComposite in2="hardAlpha" operator="out"/>
<feColorMatrix type="matrix" values="0 0 0 0 0 0 0 0 0 0 0 0 0 0 0 0 0 0 0.25 0"/>
<feBlend mode="normal" in2="BackgroundImageFix" result="effect1_dropShadow_0_4"/>
<feBlend mode="normal" in="SourceGraphic" in2="effect1_dropShadow_0_4" result="shape"/>
</filter>
<linearGradient id="paint0_linear_0_4" x1="93.7693" y1="199.627" x2="337.316" y2="443.172" gradientUnits="userSpaceOnUse">
<stop stop-color="#7FAEF4"/>
<stop offset="1" stop-color="#4C8DF1"/>
</linearGradient>
<linearGradient id="paint1_linear_0_4" x1="347.714" y1="174.409" x2="309.063" y2="61.4681" gradientUnits="userSpaceOnUse">
<stop stop-color="#4C8DF1" stop-opacity="0"/>
<stop offset="1" stop-color="#4256AC"/>
</linearGradient>
<linearGradient id="paint2_linear_0_4" x1="280.618" y1="58.9583" x2="325.515" y2="103.856" gradientUnits="userSpaceOnUse">
<stop stop-color="#A7C5FD"/>
<stop offset="1" stop-color="#7FAEF4"/>
</linearGradient>
<linearGradient id="paint3_linear_0_4" x1="192" y1="465.518" x2="192" y2="515.301" gradientUnits="userSpaceOnUse">
<stop stop-color="#4C8DF1" stop-opacity="0"/>
<stop offset="1" stop-color="#4256AC"/>
</linearGradient>
</defs>
</svg>
